<svg xmlns="http://www.w3.org/2000/svg" width="19.688" height="42.059"><path d="M222.074 286.795c-2.483 71.23 29.338 93.645-20.663 124.38-14.75 25.71-1.613 40.343-1.613 40.343 15.825 6.264 22.645 9.745 22.117 13.563l-68.477.37c-.58-3.818 5.99-8.504 24.528-13.743 0 0 13.61-13.014-1.49-40.83-47.486-29.11-20.266-49.176-19.968-124.082" fill="none" stroke-width="4.351" transform="matrix(.23 0 0 .23 -33.623 -65.412)" stroke="url(#linearGradient3916)"/><path d="M17.368.482c-.57 16.37 6.743 21.522-4.75 28.585-3.39 5.91-.37 9.272-.37 9.272 3.638 1.44 5.205 2.24 5.084 3.116l-15.738.085c-.133-.877 1.377-1.954 5.637-3.158 0 0 3.13-2.99-.34-9.383C-4.026 22.31 2.23 17.696 2.3.48" fill="#fff"/></svg>