<svg xmlns="http://www.w3.org/2000/svg" width="24" height="24"><path d="M14.75 3C13.78 3 13 3.78 13 4.75s.78 1.75 1.75 1.75 1.75-.78 1.75-1.75S15.72 3 14.75 3zm-8 2C5.78 5 5 5.78 5 6.75S5.78 8.5 6.75 8.5 8.5 7.72 8.5 6.75 7.72 5 6.75 5zM16 7c-.373 0-.986.135-1.5.5l-3.25 2.313c-.882.627-.073 1.73.75 1.187l2.125-1.406s1.4 3.004.875 4.406c-.018.047-.033.09-.03.125l-2.19 5.813c-.25.67.233 1.07.72 1.062.32 0 .625-.193.78-.562L17 14s.5 3 2.5 3h2.75c.75 0 .75-.75.75-.75s0-.75-.75-.75H20c-1.067 0-1-1.602-1-2.5 0-1.5-1-4-1-4l3 2c.906.604 1.692-.466.813-1.125L18.5 7.5c-.604-.43-.797-.5-1.5-.5h-1zM5.5 9c-.5 0-.736.237-1 .5l-2.125 2.125C2.1 11.9 2 12.145 2 12.5c0 .5.764.736 1.188.313L5 11c1 0 1.375 2.5 1 3.5l-1.5 4c-.415 1.108 1.144 1.45 1.5.5l1.5-4S8 16 9 16h3c1 0 1-1.5 0-1.5H9.5c-.5 0-.5-1-.5-1.5 0-2-1-4-2-4z" opacity=".3" color="#000" fill="none" stroke="#fff" stroke-width="2" stroke-linecap="round" stroke-linejoin="round" overflow="visible" enable-background="accumulate"/><path d="M14.75 3C13.78 3 13 3.78 13 4.75s.78 1.75 1.75 1.75 1.75-.78 1.75-1.75S15.72 3 14.75 3zm-8 2C5.78 5 5 5.78 5 6.75S5.78 8.5 6.75 8.5 8.5 7.72 8.5 6.75 7.72 5 6.75 5zM16 7c-.373 0-.986.135-1.5.5l-3.25 2.313c-.882.627-.073 1.73.75 1.187l2.125-1.406s1.4 3.004.875 4.406c-.018.047-.033.09-.03.125l-2.19 5.813c-.25.67.233 1.07.72 1.062.32-.004.625-.193.78-.563L17 14s.5 3 2.5 3h2.75c.75 0 .75-.75.75-.75s0-.75-.75-.75H20c-1.067 0-1-1.603-1-2.5 0-1.5-1-4-1-4l3 2c.906.604 1.692-.466.813-1.125L18.5 7.5c-.604-.43-.797-.5-1.5-.5h-1zM5.5 9c-.5 0-.736.236-1 .5l-2.125 2.125C2.1 11.9 2 12.145 2 12.5c0 .5.764.736 1.188.313L5 11c1 0 1.375 2.5 1 3.5l-1.5 4c-.415 1.108 1.144 1.45 1.5.5l1.5-4S8 16 9 16h3c1 0 1-1.5 0-1.5H9.5c-.5 0-.5-1-.5-1.5 0-2-1-4-2-4z" color="#000" fill="#444" stroke-width="2" overflow="visible" enable-background="accumulate"/><path opacity=".5" color="#000" fill="none" stroke-width="2" overflow="visible" enable-background="accumulate" d="M0 0h24v24H0z"/></svg>